<svg width="500" height="500" viewBox="0 0 500 500" fill="none" xmlns="http://www.w3.org/2000/svg">
<rect width="500" height="500" fill="#2563EB"/>
<path d="M188.424 264.396L185.842 262.402C188.911 258.806 192.519 255.707 196.538 253.216C199.013 251.635 201.843 250.697 204.773 250.489C205.797 250.421 206.812 250.711 207.645 251.311C207.972 251.58 208.233 251.921 208.406 252.308C208.579 252.695 208.66 253.117 208.642 253.541C208.642 254.673 207.374 259.484 204.838 267.975C200.703 281.863 198.635 290.236 198.635 293.093C198.618 293.584 198.761 294.068 199.044 294.47C199.135 294.627 199.263 294.759 199.416 294.856C199.569 294.953 199.744 295.012 199.924 295.027C201.176 295.027 204.384 292.601 209.549 287.75L211.837 289.98C208.259 293.592 204.328 296.835 200.102 299.663C198.293 300.855 196.216 301.58 194.058 301.775C193.455 301.804 192.852 301.704 192.29 301.481C191.728 301.259 191.22 300.919 190.8 300.484C189.952 299.492 189.521 298.208 189.599 296.905C189.599 292.016 192.533 280.065 198.4 261.051C198.655 260.274 198.794 259.463 198.813 258.645C198.813 257.862 198.461 257.471 197.756 257.472C196.796 257.531 195.872 257.856 195.085 258.409C192.721 260.238 190.494 262.239 188.424 264.396V264.396ZM211.485 225.549C212.04 225.532 212.593 225.629 213.108 225.836C213.623 226.043 214.09 226.354 214.479 226.751C214.871 227.161 215.177 227.645 215.378 228.176C215.58 228.706 215.672 229.272 215.651 229.839C215.664 231.529 215.023 233.158 213.861 234.386C213.374 234.985 212.763 235.47 212.07 235.81C211.377 236.149 210.618 236.334 209.847 236.352C209.298 236.365 208.753 236.262 208.247 236.049C207.742 235.836 207.287 235.518 206.913 235.117C206.515 234.682 206.206 234.174 206.005 233.62C205.803 233.066 205.713 232.478 205.739 231.889C205.7 230.229 206.309 228.618 207.438 227.399C207.939 226.817 208.561 226.351 209.259 226.032C209.958 225.712 210.717 225.548 211.485 225.549V225.549Z" fill="white"/>
<path d="M226.213 300.134H217.471L221.578 284.347C223.574 276.602 225.315 269.248 226.802 262.284C227.053 261.222 227.23 260.144 227.33 259.057C227.33 258.119 226.899 257.65 226.037 257.649C225.05 257.813 224.121 258.227 223.338 258.85C220.993 260.658 218.796 262.65 216.767 264.807L214.946 262.753C218.176 259.144 221.97 256.082 226.181 253.686C229.915 251.674 232.78 250.667 234.774 250.665C235.372 250.633 235.963 250.809 236.446 251.163C236.64 251.311 236.797 251.502 236.904 251.721C237.012 251.94 237.066 252.181 237.064 252.425C236.911 253.8 236.653 255.161 236.292 256.497L233.739 267.054C237.441 261.116 241.953 255.723 247.145 251.032C249.536 248.912 251.535 247.851 253.141 247.851C253.681 247.836 254.22 247.929 254.724 248.126C255.228 248.322 255.687 248.618 256.074 248.996C256.443 249.338 256.737 249.752 256.94 250.213C257.142 250.673 257.248 251.171 257.251 251.674C257.254 252.177 257.154 252.675 256.957 253.138C256.76 253.601 256.471 254.019 256.107 254.366C254.377 255.583 252.442 256.477 250.394 257.005C247.868 257.798 245.483 258.988 243.33 260.528C241.071 262.352 239.061 264.463 237.349 266.808C235.525 269.059 233.997 271.534 232.802 274.173C231.19 278.948 229.874 283.817 228.861 288.754L226.213 300.134Z" fill="white"/>
<path d="M291.406 249.783L295.277 248.962L290.878 263.808C289.117 269.717 287.455 276.524 285.891 284.23C285.257 286.893 284.824 289.6 284.598 292.328C284.598 293.54 285.088 294.147 286.067 294.148C287.146 293.973 288.17 293.551 289.058 292.913C291.585 291.386 293.928 289.572 296.04 287.509L297.918 289.797C293.459 293.868 290.603 296.333 289.351 297.191C287.136 298.76 284.73 300.041 282.193 301.005C280.806 301.534 279.335 301.812 277.851 301.827C277.026 301.889 276.208 301.638 275.561 301.123C275.295 300.854 275.09 300.532 274.958 300.178C274.826 299.824 274.772 299.446 274.798 299.069C274.839 298.249 274.995 297.44 275.261 296.663L277.607 288.682C274.18 292.767 270.119 296.274 265.578 299.069C263.262 300.688 260.537 301.623 257.714 301.767C256.714 301.821 255.715 301.631 254.804 301.211C253.894 300.792 253.1 300.157 252.491 299.361C250.75 296.898 249.88 293.925 250.02 290.912C250.17 286.117 251.299 281.405 253.337 277.063C255.534 271.997 258.536 267.321 262.226 263.214C265.493 259.415 269.482 256.303 273.961 254.059C277.82 252.44 281.985 251.679 286.167 251.829C287.442 251.832 288.716 251.91 289.981 252.064L291.406 249.783ZM284.131 258.761C282.375 258.373 280.587 258.157 278.79 258.117C275.483 258.049 272.246 259.069 269.576 261.02C266.956 262.958 264.521 266.44 262.271 271.465C260.09 276.187 258.94 281.318 258.897 286.519C258.729 288.53 259.201 290.543 260.247 292.269C260.646 292.826 261.176 293.277 261.789 293.583C262.402 293.89 263.08 294.043 263.766 294.029C266.466 294.029 269.361 292.572 272.451 289.658C275.854 286.183 278.213 281.822 279.259 277.072L284.131 258.761Z" fill="white"/>
<path d="M381.473 264.396L378.891 262.402C381.96 258.806 385.568 255.707 389.587 253.216C392.062 251.635 394.893 250.697 397.822 250.489C398.846 250.421 399.861 250.711 400.694 251.311C401.021 251.58 401.282 251.921 401.455 252.308C401.628 252.695 401.709 253.117 401.691 253.541C401.691 254.673 400.423 259.484 397.887 267.975C393.752 281.863 391.684 290.236 391.684 293.093C391.667 293.584 391.81 294.068 392.093 294.47C392.184 294.627 392.312 294.759 392.465 294.856C392.618 294.953 392.793 295.012 392.973 295.027C394.225 295.027 397.433 292.601 402.598 287.75L404.886 289.98C401.308 293.592 397.377 296.835 393.151 299.663C391.342 300.855 389.266 301.58 387.108 301.775C386.504 301.804 385.901 301.704 385.339 301.481C384.777 301.259 384.269 300.919 383.849 300.484C383.001 299.492 382.57 298.208 382.648 296.905C382.648 292.016 385.582 280.065 391.449 261.051C391.704 260.274 391.843 259.463 391.862 258.645C391.862 257.862 391.51 257.471 390.806 257.472C389.846 257.531 388.921 257.856 388.134 258.409C385.77 260.238 383.543 262.239 381.473 264.396ZM404.534 225.549C405.089 225.532 405.642 225.629 406.157 225.836C406.672 226.043 407.139 226.354 407.528 226.751C407.92 227.161 408.226 227.645 408.428 228.176C408.629 228.706 408.721 229.272 408.7 229.839C408.713 231.529 408.072 233.158 406.91 234.386C406.423 234.985 405.812 235.47 405.119 235.81C404.426 236.149 403.667 236.334 402.896 236.352C402.347 236.365 401.802 236.262 401.296 236.049C400.791 235.836 400.336 235.518 399.962 235.117C399.564 234.682 399.255 234.174 399.054 233.62C398.852 233.066 398.762 232.478 398.789 231.889C398.749 230.229 399.358 228.618 400.487 227.399C400.988 226.817 401.61 226.351 402.308 226.032C403.007 225.712 403.766 225.548 404.534 225.549Z" fill="white"/>
<path d="M368.626 249.783L372.497 248.962L368.098 263.808C366.337 269.717 364.674 276.524 363.111 284.23C362.476 286.893 362.044 289.6 361.818 292.328C361.818 293.54 362.308 294.147 363.287 294.148C364.366 293.973 365.39 293.551 366.278 292.913C368.805 291.386 371.148 289.572 373.26 287.509L375.138 289.797C370.678 293.868 367.823 296.333 366.571 297.191C364.355 298.76 361.95 300.041 359.413 301.005C358.025 301.534 356.555 301.812 355.071 301.827C354.246 301.889 353.428 301.638 352.781 301.123C352.515 300.854 352.309 300.532 352.178 300.178C352.046 299.824 351.992 299.446 352.018 299.069C352.059 298.249 352.215 297.44 352.481 296.663L354.827 288.682C351.4 292.767 347.339 296.274 342.798 299.069C340.482 300.688 337.757 301.623 334.934 301.767C333.933 301.821 332.934 301.631 332.024 301.211C331.114 300.792 330.319 300.157 329.71 299.361C327.97 296.898 327.1 293.925 327.24 290.912C327.39 286.117 328.518 281.405 330.557 277.063C332.754 271.997 335.756 267.321 339.446 263.214C342.713 259.415 346.702 256.303 351.181 254.059C355.04 252.44 359.205 251.679 363.387 251.829C364.662 251.832 365.935 251.91 367.201 252.064L368.626 249.783ZM361.35 258.761C359.595 258.373 357.806 258.157 356.009 258.117C352.703 258.049 349.466 259.069 346.796 261.02C344.176 262.958 341.741 266.44 339.491 271.465C337.31 276.187 336.16 281.318 336.117 286.519C335.948 288.53 336.421 290.543 337.466 292.269C337.866 292.826 338.396 293.277 339.009 293.583C339.622 293.89 340.3 294.043 340.985 294.029C343.685 294.029 346.581 292.572 349.671 289.658C353.074 286.183 355.433 281.822 356.479 277.072L361.35 258.761Z" fill="white"/>
<ellipse cx="312.743" cy="289.575" rx="3.861" ry="3.861" fill="white"/>
<path d="M243.32 313.705C240.22 313.705 237.157 314.376 234.341 315.673C231.526 316.969 229.024 318.86 227.009 321.216C205.686 312.734 182.519 309.96 159.795 313.168C159.556 293.307 158.129 273.478 155.524 253.787C166.577 251.491 176.877 243.207 186.235 229.108C187.136 227.718 207.911 194.577 205.764 140.905C205.764 140.668 204.949 117.791 171.834 115.56C171.163 114.201 170.033 113.123 168.645 112.515C167.256 111.907 165.698 111.809 164.244 112.237C162.79 112.665 161.534 113.592 160.696 114.855C159.858 116.118 159.493 117.637 159.665 119.143C159.837 120.649 160.534 122.046 161.635 123.088C162.735 124.13 164.168 124.751 165.681 124.841C167.194 124.931 168.69 124.484 169.906 123.579C171.122 122.674 171.98 121.369 172.329 119.894C200.585 122.105 201.45 140.174 201.472 141.033C203.575 193.311 182.822 226.467 182.651 226.768C172.414 242.177 161.211 250.053 149.323 250.16H149.044C128.484 250.16 112.196 226.961 111.938 226.617C96.7871 207.495 93.2666 149.339 93.0998 146.312C93.7005 136.462 97.0064 129.208 102.908 124.809C108.595 120.581 115.741 119.658 121.128 119.701C121.434 121.184 122.253 122.512 123.442 123.45C124.63 124.389 126.112 124.878 127.625 124.832C129.139 124.785 130.587 124.206 131.716 123.197C132.845 122.188 133.581 120.813 133.796 119.314C134.011 117.815 133.689 116.288 132.889 115.002C132.089 113.717 130.861 112.755 129.421 112.286C127.981 111.817 126.422 111.87 125.018 112.438C123.614 113.005 122.455 114.049 121.746 115.387C115.63 115.259 107.217 116.224 100.349 121.353C93.3531 126.568 89.4682 134.917 88.8042 146.184V146.42C88.9324 148.952 92.2598 208.678 108.505 229.173C109.214 230.202 126.21 254.452 149.044 254.452H149.109C151.763 274.303 153.183 294.3 153.358 314.327C140.542 317.439 92.9686 331.217 99.778 363.107C100.65 367.231 102.474 371.094 105.105 374.388C107.735 377.682 111.099 380.315 114.929 382.077C118.285 383.613 121.926 384.425 125.617 384.46C134.308 384.46 145.168 379.61 155.061 361.132C156.656 358.121 157.675 354.838 158.066 351.454C159.187 340.896 159.767 330.287 159.804 319.67C181.312 316.563 203.257 319.054 223.521 326.902C222.423 329.518 221.861 332.328 221.869 335.165C221.869 339.41 223.128 343.56 225.486 347.089C227.845 350.619 231.197 353.37 235.118 354.994C239.04 356.619 243.356 357.043 247.519 356.215C251.683 355.387 255.507 353.343 258.508 350.341C261.51 347.34 263.554 343.515 264.382 339.352C265.211 335.189 264.786 330.873 263.161 326.951C261.537 323.03 258.786 319.678 255.256 317.319C251.727 314.961 247.577 313.702 243.332 313.702L243.32 313.705ZM151.661 350.725C151.375 353.303 150.596 355.802 149.365 358.085C140.1 375.447 129.384 381.52 117.581 376.198C114.665 374.859 112.104 372.854 110.102 370.346C108.101 367.838 106.716 364.895 106.058 361.754C100.692 336.624 141.295 324.091 153.335 320.958C153.283 330.902 152.725 340.837 151.662 350.725H151.661Z" fill="white"/>
</svg>
